<?xml version="1.0" standalone="no"?>
<!DOCTYPE svg PUBLIC "-//W3C//DTD SVG 20010904//EN"
 "http://www.w3.org/TR/2001/REC-SVG-20010904/DTD/svg10.dtd">
<svg version="1.0" xmlns="http://www.w3.org/2000/svg"
 width="750.000000pt" height="750.000000pt" viewBox="0 0 750.000000 750.000000"
 preserveAspectRatio="xMidYMid meet">
<metadata>
Created by potrace 1.14, written by Peter Selinger 2001-2017
</metadata>
<g transform="translate(0.000000,750.000000) scale(0.100000,-0.100000)"
fill="#000000" stroke="none">
<path d="M3309 7496 c-2 -2 -42 -6 -89 -10 -47 -3 -98 -8 -115 -11 -16 -2 -50
-7 -75 -10 -89 -12 -143 -21 -230 -40 -14 -3 -35 -7 -48 -10 -12 -2 -50 -11
-85 -20 -34 -9 -66 -18 -72 -19 -80 -20 -310 -96 -374 -124 -20 -9 -38 -16
-41 -17 -16 -5 -70 -29 -103 -46 -21 -10 -44 -19 -52 -19 -8 0 -15 -4 -15 -10
0 -5 -6 -10 -13 -10 -19 0 -67 -24 -67 -33 0 -5 -4 -5 -10 -2 -5 3 -10 1 -10
-5 0 -6 -4 -8 -10 -5 -5 3 -10 1 -10 -5 0 -6 -4 -9 -9 -6 -5 4 -11 3 -13 -1
-3 -8 -66 -44 -115 -67 -13 -6 -23 -15 -23 -19 0 -5 -4 -5 -10 -2 -5 3 -10 1
-10 -4 0 -6 -7 -11 -15 -11 -8 0 -15 -4 -15 -10 0 -5 -5 -10 -10 -10 -9 0
-138 -81 -167 -105 -7 -5 -19 -16 -27 -22 -8 -7 -18 -13 -21 -13 -3 0 -11 -4
-18 -10 -11 -9 -41 -32 -127 -100 -42 -34 -113 -95 -169 -148 -25 -24 -62 -58
-81 -76 -31 -30 -154 -159 -214 -226 -12 -14 -38 -45 -57 -70 -19 -25 -44 -56
-56 -70 -60 -69 -250 -357 -245 -372 1 -4 -2 -8 -7 -8 -15 0 -196 -374 -250
-516 -47 -124 -115 -339 -124 -394 -3 -14 -12 -52 -20 -85 -9 -33 -19 -80 -22
-105 -4 -25 -10 -63 -15 -85 -11 -49 -27 -172 -37 -280 -5 -44 -8 -282 -8
-530 0 -400 4 -532 20 -655 3 -19 7 -53 10 -75 3 -22 7 -51 10 -65 3 -14 7
-38 10 -55 4 -31 20 -112 30 -153 3 -12 7 -31 9 -42 16 -71 70 -259 96 -330
17 -47 32 -92 34 -100 3 -8 12 -33 21 -55 10 -22 16 -40 14 -40 -1 0 4 -11 11
-25 8 -14 13 -28 12 -32 -1 -5 3 -8 8 -8 5 0 9 -3 8 -7 -1 -5 7 -26 17 -48 10
-22 17 -43 17 -47 -1 -5 3 -8 9 -8 5 0 8 -4 4 -9 -3 -5 1 -16 9 -24 8 -8 12
-17 9 -21 -4 -3 -1 -6 5 -6 7 0 11 -3 10 -8 -2 -10 16 -47 52 -107 16 -27 34
-62 41 -78 6 -15 16 -27 22 -27 6 0 8 -3 4 -6 -3 -3 -2 -11 4 -18 5 -6 41 -60
81 -121 39 -60 75 -111 79 -113 5 -2 9 -10 9 -18 0 -8 4 -14 9 -14 5 0 12 -8
15 -17 3 -10 18 -31 33 -47 16 -16 35 -39 43 -51 72 -105 327 -368 465 -480
20 -16 47 -39 59 -50 12 -11 37 -31 56 -45 18 -14 44 -35 59 -47 14 -13 29
-23 33 -23 4 0 13 -6 20 -13 22 -22 136 -97 147 -97 6 0 11 -4 11 -8 0 -31
596 -330 712 -357 9 -2 48 -15 87 -29 39 -14 71 -23 71 -20 0 2 9 0 19 -6 27
-14 244 -68 369 -90 264 -49 360 -55 872 -55 394 0 523 4 651 20 19 3 52 7 74
10 22 3 51 7 65 10 14 3 39 7 55 10 17 2 41 7 55 9 23 5 37 8 100 22 14 3 36
7 50 10 14 3 39 9 56 15 17 5 40 11 51 13 28 6 222 66 253 79 14 5 30 11 35
13 6 1 24 8 40 15 17 6 35 13 41 14 6 2 29 11 50 21 22 11 41 19 44 20 3 0 32
13 65 29 74 35 66 31 93 40 12 4 22 12 22 17 0 5 4 7 9 3 5 -3 16 1 24 9 8 8
17 12 21 9 3 -4 6 -1 6 6 0 7 5 9 10 6 6 -3 10 -2 10 3 0 5 17 16 38 25 43 18
94 48 103 60 3 5 9 7 12 5 4 -1 15 4 25 12 10 8 34 24 53 34 18 11 36 22 39
26 3 3 23 17 45 30 22 13 46 30 53 37 7 7 16 13 20 13 4 0 22 14 41 30 18 17
37 30 40 30 4 0 16 8 27 19 11 10 40 33 65 52 127 97 376 340 464 453 17 21
39 48 50 60 11 12 31 37 45 56 14 18 30 38 35 44 20 22 112 153 161 231 122
193 239 424 308 605 20 52 41 106 47 120 45 106 145 523 164 685 4 33 9 69 12
80 26 134 25 1128 -2 1286 -2 13 -7 44 -10 69 -5 42 -7 57 -20 128 -3 15 -8
43 -11 62 -3 19 -15 71 -25 115 -11 44 -21 87 -23 95 -2 8 -10 35 -17 60 -7
25 -13 50 -14 55 -5 20 -85 251 -100 288 -8 20 -15 39 -15 42 0 3 -7 19 -15
35 -8 16 -16 33 -16 37 -1 5 -12 28 -26 53 -14 25 -25 47 -26 50 0 18 -21 60
-29 60 -5 0 -6 5 -3 10 3 6 2 10 -4 10 -5 0 -12 14 -16 30 -4 17 -10 30 -14
30 -4 0 -17 21 -29 48 -26 55 -43 84 -57 94 -5 4 -6 8 -2 8 4 0 -3 15 -17 33
-15 19 -26 39 -26 45 0 7 -4 12 -10 12 -5 0 -10 6 -10 13 0 7 -9 22 -19 34
-10 11 -26 34 -35 51 -9 18 -21 32 -26 32 -6 0 -10 7 -10 15 0 8 -4 15 -10 15
-5 0 -10 7 -10 15 0 9 -7 18 -15 21 -8 4 -15 13 -15 20 0 8 -7 17 -15 20 -8 4
-15 11 -15 18 0 6 -8 19 -17 28 -10 9 -22 23 -28 30 -22 29 -110 134 -130 154
-11 11 -54 56 -96 100 -66 69 -127 127 -219 208 -14 12 -47 40 -75 61 -27 22
-61 50 -75 63 -14 12 -28 22 -31 22 -3 0 -15 8 -27 18 -95 81 -340 231 -527
325 -98 49 -232 108 -249 111 -6 1 -16 5 -22 8 -21 13 -204 77 -204 71 0 -3
-6 -1 -12 5 -14 10 -182 58 -303 86 -114 25 -259 49 -445 72 -42 6 -996 15
-1001 10z"/>
</g>
</svg>
