<?xml version="1.0" standalone="no"?>
<!DOCTYPE svg PUBLIC "-//W3C//DTD SVG 20010904//EN"
 "http://www.w3.org/TR/2001/REC-SVG-20010904/DTD/svg10.dtd">
<svg version="1.0" xmlns="http://www.w3.org/2000/svg"
 width="1400.000000pt" height="1400.000000pt" viewBox="0 0 1400.000000 1400.000000"
 preserveAspectRatio="xMidYMid meet">
<metadata>
Created by potrace 1.14, written by Peter Selinger 2001-2017
</metadata>
<g transform="translate(0.000000,1400.000000) scale(0.100000,-0.100000)"
fill="#000000" stroke="none">
<path d="M6688 13995 c-2 -2 -57 -6 -123 -9 -66 -4 -133 -9 -150 -11 -16 -2
-62 -6 -101 -9 -39 -4 -80 -8 -90 -10 -11 -2 -49 -7 -86 -10 -37 -4 -77 -9
-90 -11 -78 -13 -107 -17 -138 -21 -19 -2 -46 -6 -60 -9 -14 -2 -38 -7 -55
-10 -16 -3 -41 -7 -55 -10 -14 -3 -41 -8 -60 -11 -19 -3 -62 -12 -95 -19 -33
-8 -71 -16 -85 -19 -14 -2 -83 -18 -155 -36 -71 -17 -137 -32 -146 -35 -9 -2
-49 -13 -90 -26 -41 -12 -78 -23 -84 -25 -5 -1 -44 -12 -85 -25 -41 -12 -78
-24 -82 -25 -5 -1 -9 -2 -10 -3 -2 -2 -14 -4 -27 -7 -14 -2 -30 -9 -38 -15 -7
-6 -13 -8 -13 -5 0 4 -9 2 -21 -4 -11 -6 -28 -13 -37 -15 -15 -3 -132 -45
-172 -62 -8 -3 -18 -7 -22 -8 -5 -2 -10 -4 -13 -5 -3 -1 -8 -3 -12 -4 -18 -3
-129 -50 -140 -59 -7 -5 -13 -6 -13 -3 0 4 -12 0 -28 -8 -15 -8 -47 -23 -72
-34 -25 -11 -61 -26 -80 -35 -19 -9 -37 -16 -40 -15 -3 0 -30 -13 -60 -28 -30
-16 -57 -29 -60 -30 -3 -1 -15 -5 -27 -9 -13 -4 -23 -11 -23 -16 0 -5 -9 -9
-20 -9 -11 0 -20 -5 -20 -10 0 -6 -3 -9 -7 -8 -12 4 -93 -35 -93 -44 0 -4 -9
-8 -19 -8 -11 0 -21 -4 -23 -8 -1 -4 -30 -21 -63 -37 -33 -16 -63 -34 -67 -40
-4 -5 -8 -6 -8 -1 0 5 -8 2 -17 -6 -10 -9 -28 -19 -40 -22 -13 -4 -23 -12 -23
-17 0 -6 -4 -7 -10 -4 -6 3 -10 2 -10 -3 0 -6 -12 -15 -27 -21 -27 -10 -62
-30 -73 -41 -3 -3 -26 -16 -52 -30 -27 -13 -48 -28 -48 -32 0 -5 -5 -8 -10 -8
-6 0 -23 -8 -38 -19 -15 -10 -49 -32 -77 -49 -27 -17 -55 -35 -61 -40 -5 -5
-21 -15 -35 -22 -13 -7 -26 -16 -29 -19 -3 -4 -32 -24 -65 -46 -33 -21 -62
-41 -65 -44 -3 -4 -22 -17 -42 -31 -21 -14 -38 -28 -38 -32 0 -5 -6 -8 -12 -8
-7 0 -27 -14 -45 -30 -18 -17 -36 -30 -40 -30 -4 0 -24 -15 -44 -33 -21 -17
-49 -41 -65 -52 -15 -11 -32 -25 -38 -30 -6 -6 -31 -26 -56 -45 -25 -19 -54
-44 -66 -55 -12 -11 -40 -36 -64 -55 -171 -139 -512 -475 -680 -670 -30 -35
-62 -70 -70 -79 -9 -9 -36 -41 -60 -71 -25 -30 -49 -60 -55 -66 -5 -6 -21 -26
-35 -44 -14 -18 -30 -38 -35 -44 -14 -15 -152 -197 -189 -249 -71 -101 -252
-375 -266 -402 -8 -17 -22 -38 -30 -47 -8 -9 -28 -43 -45 -75 -16 -32 -33 -60
-36 -63 -27 -23 -300 -570 -382 -765 -86 -206 -171 -435 -232 -630 -54 -170
-140 -494 -164 -615 -6 -30 -14 -66 -17 -80 -46 -212 -102 -596 -119 -825 -17
-216 -20 -315 -19 -605 1 -301 5 -450 18 -561 3 -24 8 -73 11 -109 3 -36 8
-78 10 -95 2 -16 6 -52 9 -80 3 -27 8 -61 10 -75 3 -14 8 -47 11 -75 4 -27 9
-59 10 -70 13 -88 17 -112 20 -125 2 -8 7 -30 10 -47 12 -77 17 -100 26 -143
10 -43 13 -56 23 -108 3 -13 8 -33 12 -44 3 -11 7 -30 9 -41 2 -12 6 -32 9
-44 3 -13 8 -32 11 -43 3 -11 8 -30 11 -42 3 -13 8 -34 11 -48 2 -14 7 -32 10
-40 8 -19 11 -30 17 -58 3 -12 7 -26 10 -30 3 -5 7 -19 10 -33 3 -13 16 -62
31 -109 14 -47 27 -92 29 -100 8 -31 58 -176 72 -207 8 -17 14 -35 14 -41 0
-5 7 -23 15 -38 8 -16 15 -36 15 -45 0 -9 3 -19 7 -23 4 -3 8 -12 9 -19 1 -7
17 -46 34 -87 40 -95 47 -113 50 -125 1 -5 10 -26 19 -45 20 -38 54 -112 56
-120 0 -3 11 -26 23 -52 12 -26 22 -52 22 -57 0 -6 5 -11 11 -11 5 0 7 -4 4
-10 -3 -5 -2 -10 4 -10 5 0 12 -13 16 -30 4 -16 11 -30 16 -30 5 0 8 -3 7 -7
-3 -14 34 -93 44 -93 5 0 7 -4 4 -9 -4 -5 -3 -11 1 -13 5 -1 21 -30 37 -63 15
-33 35 -68 44 -77 8 -10 11 -18 7 -18 -4 0 -1 -8 7 -17 9 -10 19 -28 22 -40 4
-13 12 -23 17 -23 6 0 7 -4 4 -10 -3 -5 -1 -10 4 -10 6 0 11 -4 11 -9 0 -12
103 -185 112 -189 5 -2 8 -8 8 -13 0 -6 8 -22 18 -37 50 -74 79 -120 92 -145
7 -15 17 -27 22 -27 4 0 8 -7 8 -15 0 -9 7 -18 15 -21 8 -4 15 -10 15 -15 0
-12 42 -73 53 -77 4 -2 7 -10 7 -18 0 -8 7 -17 15 -20 8 -4 15 -11 15 -16 0
-6 10 -23 23 -38 12 -15 29 -37 37 -50 8 -12 20 -28 25 -34 6 -6 23 -29 40
-51 32 -44 36 -49 66 -85 11 -14 30 -38 42 -53 42 -54 109 -135 147 -178 14
-16 45 -51 70 -79 146 -166 375 -399 511 -520 40 -36 82 -74 95 -85 12 -11 45
-40 74 -65 28 -25 71 -62 93 -82 23 -21 46 -38 50 -38 4 0 18 -10 31 -22 12
-13 38 -34 56 -48 18 -14 47 -36 65 -50 18 -14 45 -35 61 -47 16 -12 49 -36
74 -55 84 -63 180 -128 189 -128 5 0 11 -4 13 -8 4 -11 97 -72 109 -72 5 0 9
-4 9 -8 0 -5 19 -19 42 -33 23 -13 56 -33 74 -44 158 -98 473 -275 489 -275 6
0 15 -4 21 -9 58 -53 648 -304 947 -402 84 -28 159 -53 167 -56 8 -3 20 -7 25
-9 6 -1 82 -22 170 -47 280 -78 617 -149 888 -186 168 -24 176 -25 392 -45
285 -28 944 -28 1180 -1 17 2 62 6 100 9 39 4 81 8 95 10 14 3 52 8 85 11 33
4 69 9 80 10 63 8 112 15 130 19 11 2 40 7 65 10 25 3 56 8 70 11 14 3 37 7
51 10 39 7 171 33 199 40 14 3 36 7 50 10 14 3 40 9 58 14 18 5 35 10 37 10 3
1 6 1 8 2 1 0 10 2 21 4 41 8 122 27 136 32 8 3 22 7 30 9 8 1 40 10 70 19 30
9 64 18 75 20 11 3 53 16 93 29 39 14 72 22 72 19 0 -3 7 0 15 7 8 7 15 10 15
7 0 -3 24 4 53 14 28 11 59 22 67 24 15 3 171 60 200 72 8 3 18 7 23 8 4 2 9
4 12 5 3 1 8 3 13 5 4 1 21 7 37 14 38 15 47 18 60 20 6 1 20 9 33 17 12 8 22
12 22 9 0 -4 12 1 27 9 16 8 46 22 68 31 42 18 71 31 197 89 43 20 82 36 88
36 5 0 10 5 10 11 0 5 5 7 10 4 6 -3 10 -1 10 4 0 6 3 10 8 9 11 -3 112 46
112 55 0 5 5 5 10 2 6 -3 10 -1 10 5 0 6 4 9 9 6 5 -4 11 -3 13 2 1 4 30 21
63 37 33 16 63 34 67 40 4 5 8 6 8 2 0 -5 13 1 29 12 16 12 34 21 40 21 6 0
11 5 11 11 0 5 4 8 9 4 5 -3 13 0 16 5 4 6 17 16 28 21 12 5 47 25 77 44 30
19 63 38 73 41 9 4 17 10 17 15 0 5 7 9 15 9 8 0 15 5 15 11 0 5 4 8 8 5 5 -3
18 4 30 14 12 11 26 20 32 20 5 0 10 4 10 8 0 5 18 17 40 27 22 10 40 22 40
27 0 4 7 8 15 8 8 0 15 5 15 10 0 6 4 10 10 10 8 0 74 45 117 80 7 6 17 10 23
10 5 0 10 3 10 8 0 4 18 18 40 32 22 14 40 28 40 32 0 5 6 8 13 8 6 0 26 13
42 28 17 15 38 31 48 35 9 3 17 11 17 17 0 5 5 10 11 10 6 0 16 6 23 13 7 6
28 23 46 37 18 14 40 32 50 40 10 8 32 26 51 40 18 14 48 39 66 55 18 17 49
44 69 60 200 168 481 446 679 670 33 37 65 73 70 79 9 10 71 84 115 139 8 10
22 27 30 37 8 9 26 32 40 50 14 19 43 56 65 84 22 28 54 70 70 93 17 24 42 60
58 80 44 62 252 375 273 413 10 19 22 37 25 40 13 11 191 334 251 455 36 72
70 139 76 150 44 79 201 458 277 670 46 128 170 529 178 576 2 13 7 31 10 39
5 14 23 91 31 135 2 11 9 38 14 60 15 57 71 342 77 394 3 24 7 47 9 50 3 3 7
33 11 66 3 33 8 71 10 85 3 24 11 84 20 160 2 19 7 60 10 90 3 30 7 73 10 95
26 243 27 961 1 1180 -3 22 -8 69 -12 105 -12 130 -22 214 -28 250 -3 14 -7
43 -10 65 -10 77 -24 164 -42 262 -9 48 -45 227 -50 248 -3 11 -7 29 -9 40 -3
11 -7 31 -10 45 -4 14 -8 36 -11 50 -3 14 -8 34 -11 45 -4 11 -8 25 -9 30 -6
24 -14 56 -18 73 -2 9 -9 29 -15 45 -6 15 -8 27 -5 27 2 0 0 8 -5 18 -6 11
-12 30 -15 43 -13 59 -81 282 -96 308 -6 12 -8 21 -4 21 3 0 2 6 -4 13 -6 6
-10 16 -10 20 0 4 -4 20 -10 35 -6 15 -13 36 -18 47 -4 11 -8 25 -10 30 -1 6
-6 21 -12 35 -5 14 -11 30 -12 35 -1 6 -6 16 -12 23 -6 6 -7 12 -4 12 4 0 1
10 -6 23 -7 12 -13 24 -13 27 0 3 -6 15 -13 28 -7 12 -10 22 -6 22 3 0 -1 11
-10 25 -9 14 -14 25 -10 25 3 0 -4 16 -16 35 -12 19 -19 35 -16 35 4 0 -1 15
-11 33 -9 17 -18 34 -18 37 -1 3 -10 23 -20 45 -10 22 -19 42 -20 45 0 3 -15
35 -33 72 -18 37 -32 72 -32 78 0 5 -5 10 -11 10 -5 0 -7 5 -4 10 3 6 1 10 -4
10 -6 0 -10 3 -9 8 2 8 -41 104 -51 112 -3 3 -23 39 -44 80 -54 109 -91 174
-102 182 -7 5 -7 8 0 8 6 0 6 3 0 8 -6 4 -22 28 -35 55 -14 26 -28 47 -32 47
-5 0 -8 6 -8 13 0 8 -13 33 -30 55 -16 23 -30 44 -30 47 0 3 -21 38 -47 78
-27 40 -54 85 -62 100 -8 15 -18 27 -23 27 -4 0 -8 4 -8 10 0 8 -45 74 -80
117 -6 7 -10 15 -10 18 0 3 -5 11 -10 18 -47 55 -61 74 -66 90 -3 9 -9 17 -14
17 -5 0 -11 8 -14 18 -3 9 -19 31 -36 49 -16 18 -30 36 -30 40 0 5 -8 16 -17
24 -10 9 -27 29 -38 44 -11 16 -25 33 -30 39 -6 6 -26 31 -45 56 -19 25 -46
57 -60 71 -14 15 -33 37 -43 50 -101 134 -467 506 -676 689 -35 30 -73 64 -85
75 -12 11 -41 35 -64 53 -22 19 -50 41 -60 50 -11 10 -34 28 -52 42 -18 14
-38 30 -44 35 -6 6 -38 30 -71 55 -78 59 -72 54 -130 99 -71 54 -339 233 -477
319 -433 266 -920 493 -1416 663 -81 27 -148 49 -150 49 -1 0 -37 10 -80 24
-71 22 -295 84 -331 91 -9 2 -54 12 -101 24 -101 24 -311 66 -407 81 -37 6
-79 13 -93 16 -28 5 -229 32 -300 40 -25 2 -61 7 -80 9 -19 3 -75 7 -125 11
-49 3 -106 8 -125 10 -41 5 -757 13 -762 9z"/>
</g>
</svg>
