<?xml version="1.0" standalone="no"?>
<!DOCTYPE svg PUBLIC "-//W3C//DTD SVG 20010904//EN"
 "http://www.w3.org/TR/2001/REC-SVG-20010904/DTD/svg10.dtd">
<svg version="1.0" xmlns="http://www.w3.org/2000/svg"
 width="512.000000pt" height="512.000000pt" viewBox="0 0 512.000000 512.000000"
 preserveAspectRatio="xMidYMid meet">
<metadata>
Created by potrace 1.11, written by Peter Selinger 2001-2013
</metadata>
<g transform="translate(0.000000,512.000000) scale(0.100000,-0.100000)"
fill="#000000" stroke="none">
<path d="M1620 4195 c-5 -7 -7 -14 -4 -17 2 -3 7 -18 10 -33 3 -20 1 -25 -8
-19 -10 6 -9 3 1 -9 7 -9 10 -17 7 -17 -4 0 -2 -9 4 -20 9 -16 8 -19 -6 -13
-13 5 -15 2 -7 -13 10 -22 10 -44 0 -61 -4 -6 -3 -14 3 -18 5 -3 10 -13 10
-21 0 -9 -5 -12 -12 -8 -7 4 -8 3 -4 -5 12 -19 14 -61 4 -67 -4 -3 -5 -11 -1
-17 11 -17 10 -31 -2 -39 -6 -5 -6 -8 2 -8 12 0 12 -37 0 -57 -4 -6 -3 -14 3
-18 5 -3 10 -13 10 -21 0 -9 -5 -12 -11 -8 -8 4 -8 1 -2 -12 10 -23 10 -45 0
-61 -4 -6 -3 -14 3 -18 5 -3 10 -13 10 -21 0 -9 -5 -12 -12 -8 -7 5 -8 3 -3
-6 12 -19 12 -54 0 -62 -6 -5 -5 -8 3 -8 10 0 10 -5 1 -21 -8 -16 -8 -20 1
-14 14 9 10 -27 -5 -37 -6 -5 -5 -8 3 -8 13 0 10 -38 -4 -61 -4 -7 -3 -9 4 -5
12 7 11 -32 -1 -51 -4 -6 -3 -14 3 -18 5 -3 10 -13 10 -21 0 -9 -5 -12 -11 -8
-8 4 -8 1 -2 -12 10 -23 10 -74 0 -91 -4 -6 -3 -14 3 -18 7 -4 7 -12 0 -25 -7
-13 -7 -21 0 -25 8 -5 8 -11 1 -19 -7 -9 -7 -16 1 -24 9 -9 9 -12 -3 -12 -12
0 -12 -2 0 -9 12 -8 12 -12 2 -24 -9 -12 -9 -16 0 -19 9 -3 9 -9 0 -25 -8 -15
-8 -24 -1 -28 8 -5 8 -11 0 -20 -6 -7 -7 -16 -2 -19 10 -6 9 -67 -2 -84 -3 -6
-2 -13 4 -17 5 -3 10 -11 10 -16 0 -6 -4 -7 -10 -4 -6 4 -6 -4 1 -22 6 -15 11
-28 11 -28 1 0 -4 -11 -11 -24 -8 -14 -9 -21 -2 -17 13 9 14 -4 1 -24 -5 -9
-5 -19 2 -27 8 -10 7 -13 -3 -13 -12 0 -12 -2 -1 -9 17 -11 17 -21 0 -32 -9
-6 -9 -9 -1 -9 12 0 12 -37 0 -57 -4 -6 -3 -14 3 -18 5 -3 10 -13 10 -21 0 -9
-5 -12 -12 -8 -7 4 -8 3 -4 -5 12 -19 14 -61 4 -67 -5 -4 -5 -10 0 -17 10 -13
10 -87 -1 -104 -4 -6 -4 -13 0 -17 11 -11 9 -356 -2 -356 -6 0 -6 -3 0 -8 16
-10 17 -54 2 -45 -7 4 -6 0 2 -10 7 -10 11 -30 9 -47 -3 -17 0 -34 5 -37 6 -3
7 -1 3 5 -3 6 -3 13 2 16 5 3 8 -9 7 -27 -1 -18 3 -42 7 -55 6 -17 5 -21 -5
-16 -9 5 -9 4 1 -7 15 -16 16 -33 0 -23 -7 4 -8 3 -4 -5 4 -6 12 -9 17 -6 5 4
9 -5 9 -19 0 -14 6 -26 13 -26 8 0 7 -4 -3 -10 -8 -5 -10 -10 -4 -10 6 0 11
-7 11 -15 0 -8 -5 -15 -10 -15 -6 0 -7 -3 -4 -6 4 -4 13 -2 20 5 12 9 14 6 15
-16 0 -48 2 -53 17 -53 8 0 15 -4 15 -10 0 -5 -8 -7 -17 -3 -13 4 -12 1 5 -14
12 -11 22 -25 22 -32 0 -6 5 -11 10 -11 6 0 10 -9 10 -21 0 -12 4 -17 11 -13
8 4 9 0 4 -15 -5 -16 -3 -20 8 -15 8 3 17 -2 20 -10 4 -11 1 -13 -11 -10 -9 3
-2 -4 16 -16 28 -19 48 -41 22 -25 -17 10 -11 -12 7 -26 11 -10 14 -10 9 -2
-4 7 -2 13 3 13 6 0 11 -9 11 -21 0 -13 4 -18 13 -13 7 5 6 0 -3 -11 -9 -11
-10 -16 -2 -11 7 4 12 2 12 -4 0 -6 5 -8 12 -4 7 5 9 2 5 -9 -4 -11 -2 -14 9
-10 8 3 14 -1 14 -11 0 -15 12 -21 34 -17 5 1 3 -6 -5 -15 -9 -12 -9 -15 -1
-10 7 4 12 2 12 -6 0 -10 3 -9 11 2 9 12 10 10 6 -8 -5 -20 -3 -21 11 -10 13
11 15 11 10 -3 -4 -11 -1 -16 10 -15 9 0 22 -10 29 -24 7 -14 18 -24 24 -22 6
1 18 -5 26 -15 8 -10 12 -12 8 -6 -4 9 -1 11 9 7 9 -3 16 -14 16 -23 0 -14 2
-14 10 -1 8 12 10 10 11 -10 0 -14 3 -19 6 -12 2 6 9 12 14 12 6 0 8 -4 5 -8
-2 -4 5 -14 17 -22 20 -12 21 -12 8 4 -12 14 -12 16 2 10 9 -3 19 -15 22 -25
5 -15 10 -17 19 -10 9 8 19 5 35 -10 12 -11 29 -18 37 -15 13 5 19 -6 15 -27
-1 -5 3 -6 9 -2 6 3 8 11 5 16 -3 5 1 6 9 3 9 -3 16 -10 16 -15 0 -4 7 -5 17
-2 10 4 14 2 10 -4 -3 -5 0 -10 8 -10 8 0 12 3 10 7 -2 4 3 7 11 7 9 0 13 -6
9 -15 -4 -12 -3 -13 10 -2 13 11 14 10 9 -6 -4 -10 -4 -16 1 -12 4 4 14 3 22
-3 8 -8 13 -8 13 -1 0 6 -6 12 -12 15 -7 2 -10 7 -7 11 10 11 51 -32 43 -46
-5 -10 -4 -10 6 -1 11 10 11 15 -1 29 -13 16 -12 16 8 4 12 -8 20 -17 17 -21
-2 -4 3 -10 12 -13 11 -4 15 -2 11 8 -6 16 4 15 47 -3 22 -9 31 -9 36 0 5 7
10 8 14 1 3 -6 16 -8 28 -4 13 3 19 1 15 -5 -3 -5 1 -10 9 -10 8 0 13 6 10 13
-3 9 3 10 23 4 16 -4 35 -3 46 2 13 8 16 7 11 -1 -4 -6 -2 -11 3 -11 6 0 11 8
12 18 0 15 1 14 8 -3 7 -19 8 -19 27 3 10 12 23 22 29 22 5 0 3 -4 -5 -10 -8
-5 -11 -13 -6 -17 4 -4 14 1 22 11 13 19 50 33 39 16 -6 -10 15 -8 33 3 6 5
18 5 25 1 9 -6 9 -5 0 7 -10 13 -10 16 2 16 8 0 15 -4 15 -9 0 -5 5 -6 10 -3
6 4 7 12 4 18 -4 7 -3 9 1 4 5 -4 18 1 29 10 18 16 19 16 8 1 -12 -15 -11 -17
7 -15 11 0 17 5 15 9 -3 4 2 8 11 8 10 0 13 5 9 13 -5 8 -2 8 9 -2 15 -11 17
-11 17 2 0 10 6 13 19 10 10 -3 22 1 26 8 6 8 4 10 -5 4 -9 -5 -11 -4 -6 4 6
9 11 9 21 1 8 -7 15 -7 19 -1 3 5 0 12 -6 15 -7 4 -3 4 10 2 12 -2 22 0 22 6
0 5 4 7 9 4 5 -3 12 1 15 10 4 9 9 14 12 11 4 -3 13 1 21 9 8 8 18 12 23 9 5
-3 12 0 16 6 5 8 3 9 -7 4 -12 -8 -12 -6 0 8 11 13 17 15 28 6 11 -10 12 -9 7
5 -7 19 12 22 20 4 3 -7 3 1 0 17 -3 18 -2 25 3 18 9 -12 33 -3 36 13 1 5 8 8
15 7 8 0 11 5 8 13 -4 9 2 14 17 14 18 0 19 2 7 10 -12 8 -11 10 7 10 12 0 25
5 29 12 5 7 3 8 -5 3 -10 -6 -11 -3 -2 14 7 11 14 21 17 21 3 0 3 -4 -1 -9 -3
-5 -1 -13 5 -16 6 -4 10 -3 9 2 -6 26 61 108 77 95 5 -4 2 1 -5 11 -12 15 -11
17 3 17 10 0 14 5 11 10 -3 6 -1 10 5 10 7 0 9 7 6 16 -3 8 -2 13 2 11 4 -3
12 1 19 8 10 11 10 15 0 18 -7 3 -4 6 6 6 10 1 15 6 12 12 -4 6 2 19 14 30 12
11 21 29 21 39 0 12 7 20 18 21 14 0 14 2 -3 9 -11 5 -15 9 -8 9 7 1 10 8 6
18 -4 10 -2 14 5 9 6 -3 13 -2 17 4 3 5 0 10 -7 10 -9 0 -9 3 2 10 13 8 12 12
-4 27 -19 17 -19 17 -5 -2 14 -19 14 -19 -12 0 -15 11 -25 23 -22 28 2 4 -1 7
-7 7 -6 0 -8 5 -4 13 5 8 2 8 -9 -2 -15 -12 -21 -9 -18 11 0 4 -7 4 -16 1 -12
-5 -15 -2 -11 9 5 11 0 14 -20 11 -21 -4 -24 -2 -12 6 12 9 11 11 -8 11 -15 0
-21 4 -16 12 5 7 3 8 -7 2 -19 -11 -40 -14 -34 -4 2 4 -5 16 -18 26 -21 19
-21 19 -7 0 14 -18 14 -19 -6 -8 -25 13 -49 0 -40 -23 5 -13 2 -16 -10 -11
-14 5 -15 4 -5 -8 8 -10 9 -16 1 -21 -6 -3 -7 -11 -4 -17 4 -6 2 -8 -3 -5 -6
4 -14 -1 -18 -11 -7 -16 -8 -15 -15 3 l-9 20 -1 -20 c-1 -19 -1 -19 -19 3 -13
15 -21 18 -24 10 -3 -7 -6 -3 -6 8 -1 13 -9 24 -21 27 -11 3 -18 1 -14 -4 3
-5 -2 -6 -11 -3 -9 4 -14 12 -11 19 3 9 -2 11 -16 7 -14 -3 -19 -1 -14 6 4 7
2 12 -3 12 -6 0 -11 -5 -11 -11 0 -6 -9 -1 -21 12 -16 18 -19 20 -15 6 3 -10
2 -16 -2 -14 -4 2 -15 -4 -24 -14 -12 -12 -13 -19 -5 -23 9 -3 8 -8 -3 -15
-10 -7 -11 -11 -2 -11 6 0 12 -7 12 -15 0 -8 -5 -15 -12 -15 -6 0 -3 -7 8 -15
18 -14 18 -15 0 -9 -15 6 -17 3 -11 -14 4 -14 2 -22 -6 -22 -8 0 -8 -5 2 -17
12 -15 12 -16 -3 -10 -10 3 -18 2 -18 -3 0 -6 6 -10 13 -10 7 -1 5 -6 -5 -14
-14 -10 -15 -15 -5 -26 10 -10 9 -11 -2 -5 -11 6 -13 4 -7 -10 5 -15 4 -16 -8
-6 -12 10 -13 8 -9 -10 5 -17 3 -20 -7 -14 -8 5 -11 4 -6 -3 3 -6 -2 -16 -11
-22 -15 -9 -14 -10 7 -4 23 6 23 6 7 -10 -9 -10 -22 -14 -28 -10 -8 4 -9 3 -5
-4 4 -7 1 -12 -6 -12 -11 0 -10 -2 0 -9 11 -7 10 -9 -3 -15 -9 -3 -14 -10 -10
-15 3 -5 0 -13 -6 -17 -8 -4 -9 -3 -5 4 4 8 2 10 -7 6 -9 -3 -13 -14 -11 -27
2 -12 2 -16 -2 -9 -3 6 -10 12 -15 12 -6 0 -8 -4 -4 -9 6 -10 -13 -26 -30 -26
-5 0 -10 -7 -10 -15 0 -15 -13 -30 -28 -30 -5 0 -5 5 -1 12 4 7 3 8 -5 4 -6
-4 -9 -12 -6 -17 4 -5 1 -9 -5 -9 -6 0 -8 -4 -5 -10 4 -6 -1 -7 -11 -3 -12 4
-15 3 -10 -5 4 -7 1 -12 -8 -12 -9 0 -32 -9 -51 -20 -20 -11 -40 -18 -46 -15
-5 4 -9 1 -9 -6 0 -8 -4 -8 -15 1 -13 11 -14 10 -9 -4 7 -18 -15 -19 -28 -1
-5 6 -8 3 -8 -7 0 -11 -5 -15 -15 -12 -8 4 -23 3 -32 -1 -26 -11 -63 -13 -57
-3 3 4 0 8 -5 8 -6 0 -11 -6 -11 -12 0 -8 -3 -9 -8 -3 -4 6 -16 10 -27 10 -11
0 -23 -4 -27 -10 -5 -6 -8 -5 -8 4 0 11 -3 11 -17 0 -9 -8 -14 -9 -10 -3 4 7
-6 11 -29 12 -23 1 -33 -2 -28 -10 4 -6 3 -8 -4 -4 -6 3 -9 15 -7 26 3 13 -1
17 -11 13 -7 -3 -11 -10 -7 -17 4 -6 -1 -5 -10 3 -9 7 -17 10 -17 5 0 -5 -7 0
-15 10 -11 14 -15 16 -15 5 -1 -8 -6 -4 -14 10 -8 15 -16 20 -20 12 -11 -17
-26 -13 -26 7 0 11 -8 18 -22 19 -13 1 -29 11 -37 23 -7 11 -20 20 -28 20 -8
0 -24 11 -37 25 -13 13 -26 22 -30 18 -4 -4 -4 1 0 11 5 14 4 17 -4 12 -7 -4
-12 -2 -12 3 0 6 -15 25 -32 43 -24 22 -27 29 -13 24 14 -5 10 2 -12 23 -30
27 -45 49 -25 37 5 -3 9 2 9 10 0 8 -6 13 -14 10 -8 -3 -13 2 -13 12 0 10 -6
24 -12 31 -10 11 -10 13 0 7 6 -4 12 -2 12 3 0 6 -8 11 -17 12 -15 0 -15 2 2
9 19 8 19 9 1 9 -14 1 -17 7 -14 26 3 13 1 22 -3 19 -8 -4 -13 10 -7 19 1 1
-4 12 -11 24 -9 18 -9 22 2 18 8 -4 13 3 14 15 1 11 -3 20 -8 20 -6 0 -7 -6
-3 -13 4 -6 4 -9 -1 -5 -5 5 -9 24 -10 43 -1 31 1 34 19 29 14 -3 17 -2 8 4
-7 5 -10 16 -6 25 3 10 1 17 -5 17 -6 0 -11 5 -11 11 0 6 7 8 16 5 14 -5 15
-4 4 9 -10 12 -10 15 1 15 11 0 11 2 -1 10 -11 7 -11 10 -2 10 7 0 10 5 7 10
-4 6 -1 17 5 25 7 8 9 23 6 32 -4 10 -4 14 0 10 11 -10 36 51 39 92 1 18 8 37
16 42 8 5 10 9 5 9 -6 0 -1 7 10 16 10 8 14 13 7 10 -7 -4 -10 1 -9 11 2 9 9
19 17 21 11 3 11 1 -1 -8 -13 -10 -13 -11 0 -7 15 4 16 7 19 48 1 16 6 20 22
16 16 -4 18 -3 9 8 -14 16 -4 39 12 29 7 -4 8 -2 4 4 -4 7 -2 12 5 12 9 0 9 3
0 14 -9 11 -8 14 6 12 12 0 19 7 21 22 2 12 8 22 13 22 6 0 7 -5 3 -12 -4 -6
-3 -8 4 -5 5 4 8 17 5 30 -4 18 -3 19 6 7 9 -13 11 -13 11 2 0 9 5 20 12 24 7
5 8 3 3 -6 -5 -8 -4 -11 3 -6 6 4 8 14 5 22 -4 10 2 17 16 21 11 3 18 10 14
16 -4 6 0 8 10 4 11 -4 15 -1 12 13 -3 14 1 17 12 13 12 -5 14 -3 8 7 -6 10
-4 12 7 7 10 -3 15 0 14 10 0 9 6 18 14 20 13 4 13 3 0 -7 -13 -10 -13 -11 0
-7 8 2 16 9 16 15 1 7 2 17 3 23 0 6 10 9 22 6 17 -4 18 -3 8 9 -10 12 -9 13
3 9 9 -4 18 1 22 10 4 10 12 15 22 11 8 -3 13 -2 11 2 -3 6 26 41 36 42 22 3
46 14 42 20 -3 5 6 7 19 6 19 -3 24 1 21 16 -4 16 -2 18 10 8 12 -10 15 -9 15
4 0 9 5 16 11 16 5 0 8 -4 5 -8 -3 -5 1 -9 9 -9 8 0 13 2 10 5 -2 2 6 13 18
22 16 14 25 15 35 7 10 -8 12 -7 10 3 -2 9 6 15 20 16 12 1 22 -3 22 -9 0 -6
3 -7 6 -4 4 4 2 13 -5 20 -9 12 -5 14 25 11 29 -2 34 1 30 13 -5 13 -4 14 9 3
10 -8 15 -9 15 -1 0 6 5 11 11 11 5 0 8 -4 5 -8 -3 -5 1 -9 9 -9 8 0 12 4 9 9
-3 4 2 8 11 8 10 0 13 5 9 13 -6 9 -5 9 7 0 12 -10 20 -9 37 3 20 14 21 14 15
-3 -6 -16 -5 -16 10 -4 9 7 17 10 17 5 0 -4 6 0 13 11 11 14 16 15 22 5 5 -9
4 -11 -3 -6 -7 4 -12 2 -12 -3 0 -14 2 -14 37 1 40 16 54 18 47 6 -4 -6 -1 -8
7 -6 8 3 13 11 11 17 -3 14 11 8 43 -18 18 -15 19 -15 6 2 -15 20 -2 23 18 5
11 -10 13 -10 7 0 -4 6 -2 12 3 12 6 0 11 -6 11 -12 0 -9 4 -8 10 2 5 8 10 10
10 4 0 -9 39 -13 48 -4 7 8 50 4 67 -6 11 -7 32 -10 48 -9 15 2 27 -1 27 -6 0
-5 5 -9 11 -9 5 0 7 5 4 10 -4 6 -3 10 2 9 22 -4 43 2 43 12 0 6 -8 9 -19 6
-13 -3 -18 1 -17 16 1 11 -6 22 -14 24 -13 4 -13 3 0 -6 10 -7 11 -11 3 -11
-7 0 -17 9 -23 20 -6 11 -20 20 -30 20 -12 0 -20 7 -20 16 0 11 -6 15 -20 11
-11 -3 -18 -1 -15 3 3 5 1 11 -5 15 -6 4 -8 10 -6 14 3 4 -1 8 -9 8 -8 0 -12
-4 -9 -9 3 -4 0 -8 -5 -8 -6 0 -11 7 -11 15 0 8 -10 19 -21 26 -15 8 -19 8
-15 0 4 -6 2 -11 -3 -11 -6 0 -11 6 -12 13 0 6 -5 0 -10 -15 -8 -20 -16 -26
-32 -23 -21 4 -21 4 -3 -10 11 -8 16 -18 13 -22 -4 -3 -7 -3 -7 2 0 4 -8 1
-17 -6 -11 -10 -14 -10 -9 -1 10 17 -4 15 -18 -2 -6 -9 -30 -15 -56 -16 -64
-3 -72 -1 -65 10 4 6 -6 10 -22 10 -23 0 -25 2 -13 11 12 9 11 10 -7 6 -19 -4
-21 -2 -13 13 9 16 7 18 -11 15 -17 -4 -19 -2 -8 11 10 12 9 13 -5 8 -12 -5
-15 -2 -9 12 4 12 3 15 -5 10 -8 -5 -10 -2 -5 9 3 10 0 21 -8 26 -11 7 -9 9 6
9 17 0 17 2 5 10 -8 5 -11 10 -6 10 5 0 3 6 -3 13 -6 8 -8 17 -5 20 4 4 -7 2
-25 -3 -30 -8 -45 2 -18 14 6 3 -1 3 -18 1 -16 -3 -33 1 -38 8 -6 8 -7 7 -3
-5 3 -10 1 -20 -5 -23 -5 -4 -8 -3 -7 2 2 4 -1 8 -7 8 -5 0 -9 -4 -7 -8 1 -5
-2 -6 -8 -2 -6 3 -8 10 -5 15 3 4 -2 10 -10 13 -8 4 -12 1 -9 -6 3 -9 -14 -13
-66 -13 -38 0 -70 4 -70 8 0 4 -5 8 -11 8 -6 0 -9 -6 -6 -13 5 -13 -37 -17
-49 -4 -4 4 -13 -1 -20 -11 -9 -11 -13 -13 -14 -4 0 7 -4 10 -10 7 -5 -3 -10
-1 -10 4 0 6 5 11 11 11 5 0 7 5 4 10 -4 6 -10 8 -15 5 -4 -3 -3 6 3 20 7 14
19 25 27 25 13 0 13 1 0 10 -12 7 -11 13 10 34 13 15 20 26 16 26 -5 0 -4 6 1
13 5 6 9 26 8 42 -1 17 3 33 9 37 8 5 7 8 -1 8 -7 0 -13 5 -13 11 0 6 7 9 14
6 11 -4 13 -1 9 10 -5 12 -3 14 8 8 11 -7 11 -5 -1 10 -12 14 -12 19 -2 23 10
3 10 7 1 18 -6 8 -7 14 -2 14 5 0 10 7 10 15 0 8 -5 15 -11 15 -5 0 -1 7 10
16 10 8 13 12 5 8 -10 -5 -11 -1 -6 15 4 13 1 29 -7 38 -10 13 -10 15 0 9 9
-6 12 -1 10 18 -2 14 -7 28 -10 32 -4 3 -1 15 5 25 10 16 9 21 -3 29 -12 8
-12 10 -1 10 11 0 11 3 0 17 -12 15 -12 16 1 8 13 -8 13 -7 1 8 -7 9 -11 26
-8 38 4 16 3 18 -9 8 -12 -9 -13 -6 -10 20 3 26 1 31 -12 26 -9 -3 -13 -3 -9
1 4 4 1 14 -6 23 -11 14 -10 14 6 2 15 -12 17 -12 11 3 -3 9 -13 16 -21 16
-12 0 -13 3 -4 13 8 11 5 19 -13 35 -13 11 -28 17 -32 14 -4 -4 -4 -1 0 6 4 6
3 12 -2 12 -6 0 -8 10 -6 23 2 12 2 16 -2 10 -3 -7 -10 -13 -15 -13 -6 0 -7 5
-4 10 3 6 2 10 -2 10 -5 0 -13 10 -18 23 -6 12 -25 28 -42 36 -18 8 -33 19
-33 23 0 5 5 6 10 3 6 -3 10 -1 10 5 0 6 -10 8 -25 4 -21 -5 -24 -3 -19 11 6
15 4 16 -17 5 -23 -13 -23 -12 -9 5 8 10 10 16 3 12 -6 -4 -14 -1 -16 5 -4 10
-6 9 -6 -1 -1 -9 -8 -6 -21 9 -11 13 -20 18 -20 11 0 -7 -5 -9 -10 -6 -6 4 -8
11 -5 16 10 15 -2 10 -16 -8 -10 -11 -10 -14 -1 -9 18 11 15 -5 -5 -21 -10 -8
-12 -12 -5 -8 16 8 16 -7 0 -24 -10 -11 -10 -13 0 -7 6 4 12 3 12 -3 0 -5 -6
-12 -12 -14 -9 -4 -9 -6 1 -6 11 -1 10 -5 -5 -16 -13 -11 -14 -13 -3 -9 12 4
16 -1 14 -18 -1 -13 -3 -29 -4 -35 0 -7 -9 -13 -18 -14 -15 0 -15 -2 -3 -7 8
-4 16 -13 18 -21 3 -12 1 -12 -14 0 -10 8 -15 10 -12 4 3 -5 2 -19 -3 -30 l-9
-20 3 20 c1 11 -4 26 -13 33 -8 8 -9 11 -2 7 15 -8 16 11 1 21 -8 4 -7 9 2 15
11 7 10 9 -3 9 -17 0 -22 16 -21 58 1 10 -2 10 -15 0 -12 -10 -14 -10 -8 0 5
8 1 12 -11 13 -17 0 -17 1 0 8 18 7 18 8 1 21 -15 12 -16 12 -9 1 5 -10 4 -12
-4 -7 -6 4 -9 12 -6 17 4 5 -1 12 -10 15 -13 5 -14 8 -3 15 11 7 10 10 -1 21
-10 9 -12 10 -7 1 5 -9 2 -11 -8 -7 -9 3 -14 11 -13 17 1 7 -4 11 -10 10 -7
-2 -12 3 -10 10 1 6 -5 11 -14 11 -10 -1 -16 5 -14 15 4 26 -6 33 -21 14 -13
-16 -14 -16 -8 0 4 11 1 17 -10 17 -9 0 -16 7 -16 16 0 11 -6 15 -20 11 -17
-4 -24 2 -22 23 0 3 -12 5 -26 4 -36 -2 -52 5 -52 22 0 8 -5 14 -11 14 -5 0
-8 -4 -5 -8 2 -4 -4 -8 -14 -8 -10 0 -16 5 -13 10 4 5 -3 7 -16 3 -14 -3 -24
0 -28 8 -6 17 -69 17 -83 0z m30 -11 c0 -8 -19 -13 -24 -6 -3 5 1 9 9 9 8 0
15 -2 15 -3z m740 -299 c7 -9 8 -15 2 -15 -5 0 -12 7 -16 15 -3 8 -4 15 -2 15
2 0 9 -7 16 -15z m105 -125 c3 -6 -1 -7 -9 -4 -18 7 -21 14 -7 14 6 0 13 -4
16 -10z m26 -613 c-10 -9 -11 -8 -5 6 3 10 9 15 12 12 3 -3 0 -11 -7 -18z m-1
-21 c0 -3 -4 -8 -10 -11 -5 -3 -10 -1 -10 4 0 6 5 11 10 11 6 0 10 -2 10 -4z
m365 -155 c3 -5 2 -12 -3 -15 -5 -3 -9 1 -9 9 0 17 3 19 12 6z m350 -249 c-3
-3 -11 0 -18 7 -9 10 -8 11 6 5 10 -3 15 -9 12 -12z m-1200 -782 c-3 -5 -11
-10 -16 -10 -6 0 -7 5 -4 10 3 6 11 10 16 10 6 0 7 -4 4 -10z m935 -1064 c0
-3 -4 -8 -10 -11 -5 -3 -10 -1 -10 4 0 6 5 11 10 11 6 0 10 -2 10 -4z"/>
<path d="M1710 4199 c0 -5 5 -7 10 -4 6 3 10 8 10 11 0 2 -4 4 -10 4 -5 0 -10
-5 -10 -11z"/>
<path d="M2150 3866 c0 -2 7 -6 15 -10 8 -3 15 -1 15 4 0 6 -7 10 -15 10 -8 0
-15 -2 -15 -4z"/>
<path d="M2575 3481 c-3 -5 -2 -12 3 -15 5 -3 9 1 9 9 0 17 -3 19 -12 6z"/>
<path d="M3004 3071 c4 -6 0 -11 -9 -11 -9 0 -14 -4 -10 -9 3 -6 -4 -15 -15
-21 -14 -7 -19 -17 -16 -27 4 -10 2 -13 -6 -10 -9 3 -13 -6 -14 -29 -1 -29 1
-32 14 -21 13 10 14 9 5 -7 -8 -15 -7 -23 6 -35 9 -9 10 -11 2 -6 -12 9 -12 7
-1 -12 8 -12 20 -19 28 -15 11 4 13 1 7 -8 -5 -8 -4 -11 3 -6 6 3 18 -1 26
-10 10 -10 16 -11 16 -3 0 8 5 8 17 -2 13 -11 15 -11 9 -1 -6 11 -1 12 24 9
28 -5 30 -4 18 11 -10 12 -10 14 0 8 6 -4 12 -2 12 3 0 6 5 11 11 11 5 0 7 -6
3 -12 -6 -9 -3 -9 9 0 9 8 16 17 15 20 -2 20 3 32 11 27 5 -3 12 -1 15 4 4 5
1 13 -5 17 -8 5 -9 3 -4 -7 5 -8 4 -11 0 -6 -13 12 -16 47 -4 47 5 0 7 -6 3
-12 -4 -7 -3 -9 1 -5 12 10 15 38 4 31 -5 -3 -9 0 -9 6 0 6 -4 8 -10 5 -5 -3
-10 -2 -10 4 0 5 6 12 13 14 9 4 9 6 -1 6 -8 1 -10 6 -6 14 6 9 4 9 -8 -1 -14
-11 -16 -10 -14 12 3 22 1 24 -17 15 -13 -7 -17 -8 -13 -1 3 6 2 13 -4 17 -5
3 -10 0 -10 -7 0 -8 -3 -9 -8 -3 -10 14 -55 18 -46 4 4 -7 -1 -7 -16 1 -15 8
-20 8 -16 1z"/>
<path d="M2627 3009 c7 -7 15 -10 18 -7 3 3 -2 9 -12 12 -14 6 -15 5 -6 -5z"/>
<path d="M2687 3009 c7 -7 15 -10 18 -7 3 3 -2 9 -12 12 -14 6 -15 5 -6 -5z"/>
<path d="M3270 2709 c0 -4 6 -9 13 -12 8 -3 14 0 14 7 0 7 -6 13 -14 13 -7 0
-13 -4 -13 -8z"/>
<path d="M3419 2683 c-12 -16 -12 -17 2 -6 9 7 19 10 22 6 4 -3 7 -1 7 5 0 17
-16 15 -31 -5z"/>
<path d="M3410 1639 c0 -5 5 -7 10 -4 6 3 10 8 10 11 0 2 -4 4 -10 4 -5 0 -10
-5 -10 -11z"/>
<path d="M1983 1585 c0 -8 4 -12 9 -9 5 3 6 10 3 15 -9 13 -12 11 -12 -6z"/>
</g>
</svg>
